#!OML:ASF H:\Male1\Project 1\Capture day 1\Session 1\Male1.ASF
:FULLY-SPECIFIED
:DEGREES
497
root 7.37896 14.768 0.841493 -21.6139 61.46 -367.519
lowerback 16.9659 0.343168 7.52073
upperback 12.009 2.0321 2.4754
thorax 3.5863 1.66598 -1.84506
lowerneck 0.555137 5.4713 15.5043
upperneck 20.4393 8.62002 -8.51003
head 7.19514 4.85633 -4.79043
rclavicle 2.96189e-014 3.49861e-014
rhumerus -46.1311 -1.02789 -74.9992
rradius 44.8
rwrist -20.4913
rhand -25.3804 7.31239
rfingers 7.12502
rthumb 1.14414 -22.6643
lclavicle 2.96189e-014 3.49861e-014
lhumerus -53.4808 5.57143 85.4354
lradius 44.7777
lwrist 3.77028
lhand -27.4808 16.571
lfingers 7.12502
lthumb -0.884459 46.5489
rfemur 27.8778 -4.42332 19.579
rtibia 22.6325
rfoot -13.1078 7.55302
rtoes -32.848
lfemur -52.0569 16.2548 -3.26212
ltibia 44.1695
lfoot 9.15689 16.1798
ltoes -2.61264
498
root 7.59752 14.7054 0.847435 -21.9549 59.8332 -368.245
lowerback 17.0902 0.486211 7.84993
upperback 12.0208 2.26059 2.18881
thorax 3.5909 1.80713 -2.36396
lowerneck 1.02349 5.6897 16.0897
upperneck 19.9426 8.95086 -8.68499
head 7.03454 5.03918 -4.92683
rclavicle -1.92821e-014 2.14687e-014
rhumerus -45.9002 -0.333627 -75.9015
rradius 43.3952
rwrist -20.7376
rhand -26.1732 7.37689
rfingers 7.12502
rthumb 0.378443 -22.6025
lclavicle -1.92821e-014 2.14687e-014
lhumerus -54.3062 5.03806 85.4835
lradius 45.3189
lwrist 4.60676
lhand -28.1847 18.3014
lfingers 7.12502
lthumb -1.56434 48.2754
rfemur 28.1122 -3.93089 19.3081
rtibia 22.8178
rfoot -12.8176 9.16514
rtoes -32.6046
lfemur -49.1766 16.157 -1.39104
ltibia 42.4924
lfoot 10.0408 16.8771
ltoes -2.26494
499
root 7.82029 14.6413 0.854806 -22.1839 58.1799 -368.921
lowerback 17.2633 0.678547 8.12036
upperback 12.0223 2.55214 1.85731
thorax 3.57053 1.9773 -2.90907
lowerneck 1.43506 5.91545 16.7105
upperneck 19.3914 9.27827 -8.84482
head 6.87101 5.21937 -5.06207
rclavicle -2.20651e-014 -3.81667e-014
rhumerus -45.7342 0.270164 -76.8349
rradius 41.9322
rwrist -20.7289
rhand -26.2013 7.10791
rfingers 7.12502
rthumb 0.351324 -22.8715
lclavicle -2.20651e-014 -3.81667e-014
lhumerus -55.0054 4.57146 85.2756
lradius 45.7405
lwrist 5.39739
lhand -28.6971 19.6282
lfingers 7.12502
lthumb -2.05916 49.598
rfemur 28.3104 -3.31936 19.1036
rtibia 22.9268
rfoot -12.4916 10.6397
rtoes -32.2518
lfemur -46.3764 16.0686 0.397866
ltibia 41.0015
lfoot 10.8868 17.3537
ltoes -1.88841
500
root 8.04698 14.577 0.862623 -22.2362 56.5418 -369.523
lowerback 17.4503 0.919243 8.3138
upperback 12.0091 2.89911 1.46034
thorax 3.53958 2.1725 -3.49081
lowerneck 1.75503 6.15282 17.3599
upperneck 18.7765 9.59846 -8.97428
head 6.70624 5.39353 -5.18858
rclavicle 7.50412e-015 7.15625e-015
rhumerus -45.6832 0.648416 -77.7479
rradius 40.6013
rwrist -20.4919
rhand -25.3882 6.56429
rfingers 7.12502
rthumb 1.1366 -23.4124
lclavicle 7.50412e-015 7.15625e-015
lhumerus -55.5329 4.08296 84.8378
lradius 46.0384
lwrist 6.14581
lhand -29.0458 20.635
lfingers 7.12502
lthumb -2.39597 50.6013
rfemur 28.4216 -2.61372 18.948
rtibia 22.9835
rfoot -12.1848 11.9
rtoes -31.9085
lfemur -43.717 15.964 2.04582
ltibia 39.6784
lfoot 11.5883 17.727
ltoes -1.1565
501
root 8.2774 14.5149 0.870602 -21.9488 54.9401 -369.905
lowerback 17.5955 1.18785 8.25896
upperback 11.9676 3.24355 1.01087
thorax 3.48987 2.35064 -3.9915
lowerneck 2.09815 6.44371 17.8853
upperneck 18.0322 9.99132 -9.08224
head 6.50197 5.59065 -5.28199
rclavicle -2.62458e-015 4.96962e-016
rhumerus -45.7508 1.03161 -78.6516
rradius 39.5322
rwrist -20.2505
rhand -24.0516 5.77062
rfingers 7.12502
rthumb 2.42748 -24.1953
lclavicle -2.62458e-015 4.96962e-016
lhumerus -55.9473 3.72004 84.2216
lradius 46.2501
lwrist 6.80659
lhand -29.2644 21.4449
lfingers 7.12502
lthumb -2.60702 51.4087
rfemur 28.4033 -1.83013 18.7276
rtibia 22.9899
rfoot -11.9236 12.9314
rtoes -31.6046
lfemur -41.237 15.8443 3.44305
ltibia 38.5258
lfoot 12.0492 18.1595
ltoes 0.130406
502
root 8.51225 14.456 0.878491 -21.3262 53.4255 -370.075
lowerback 17.6834 1.4821 7.95381
upperback 11.8959 3.58049 0.488851
thorax 3.42435 2.51044 -4.42915
lowerneck 2.44503 6.78236 18.2897
upperneck 17.1456 10.44 -9.1494
head 6.25463 5.80365 -5.33813
rclavicle -3.58806e-014 2.48481e-014
rhumerus -45.9362 1.39612 -79.5571
rradius 38.699
rwrist -19.9543
rhand -22.45 5.03112
rfingers 7.12502
rthumb 3.97427 -24.9116
lclavicle -3.58806e-014 2.48481e-014
lhumerus -56.2433 3.38329 83.4573
lradius 46.4061
lwrist 7.32036
lhand -29.3726 22.1378
lfingers 7.12502
lthumb -2.71153 52.1003
rfemur 28.2726 -1.04657 18.3796
rtibia 22.9157
rfoot -11.7205 13.7569
rtoes -31.3434
lfemur -38.9958 15.6863 4.52803
ltibia 37.5846
lfoot 12.2318 18.7797
ltoes 2.3259
503
root 8.75175 14.3993 0.886652 -20.5211 51.974 -370.201
lowerback 17.7245 1.80537 7.49072
upperback 11.7995 3.92916 -0.0905633
thorax 3.35191 2.6681 -4.8405
lowerneck 2.75592 7.1511 18.6197
upperneck 16.114 10.9129 -9.18926
head 5.96896 6.01907 -5.37143
rclavicle -4.29375e-014 1.27222e-014
rhumerus -46.2331 1.78364 -80.5376
rradius 38.1223
rwrist -19.7022
rhand -20.9653 4.38657
rfingers 7.12502
rthumb 5.40784 -25.5244
lclavicle -4.29375e-014 1.27222e-014
lhumerus -56.3957 2.9805 82.5617
lradius 46.5295
lwrist 7.63282
lhand -29.4015 22.694
lfingers 7.12502
lthumb -2.73948 52.6561
rfemur 28.0596 -0.308671 17.9783
rtibia 22.7191
rfoot -11.5619 14.3972
rtoes -31.155
lfemur -37.049 15.559 5.37063
ltibia 36.9265
lfoot 12.2263 19.5389
ltoes 5.31757
504
root 8.99586 14.3433 0.895785 -19.7043 50.5492 -370.475
lowerback 17.7273 2.1466 6.95687
upperback 11.6717 4.28834 -0.682096
thorax 3.26393 2.8261 -5.22579
lowerneck 3.07628 7.53714 18.8868
upperneck 14.9101 11.406 -9.24305
head 5.63066 6.23509 -5.40108
rclavicle -4.19436e-014 1.90833e-014
rhumerus -46.6483 2.29022 -81.6241
rradius 37.7807
rwrist -19.5013
rhand -19.8045 3.91075
rfingers 7.12502
rthumb 6.52854 -25.9686
lclavicle -4.19436e-014 1.90833e-014
lhumerus -56.4248 2.52107 81.5427
lradius 46.6354
lwrist 7.72425
lhand -29.4108 23.0661
lfingers 7.12502
lthumb -2.74844 53.0281
rfemur 27.801 0.361127 17.6466
rtibia 22.348
rfoot -11.4008 14.8615
rtoes -31.0526
lfemur -35.4451 15.5695 6.07725
ltibia 36.6243
lfoot 12.2134 20.1116
ltoes 7.92926
505
root 9.24362 14.2865 0.906854 -19.0294 49.1053 -371.079
lowerback 17.7351 2.53938 6.47807
upperback 11.5005 4.72296 -1.25399
thorax 3.14417 3.02271 -5.63286
lowerneck 3.33456 7.89337 19.1786
upperneck 13.5932 11.8441 -9.2982
head 5.26486 6.42108 -5.44065
rclavicle 5.52621e-014 -1.66979e-014
rhumerus -47.1873 2.72947 -82.7439
rradius 37.5847
rwrist -19.0856
rhand -18.8374 3.81966
rfingers 7.12502
rthumb 7.4621 -26.0287
lclavicle 5.52621e-014 -1.66979e-014
lhumerus -56.2972 1.86152 80.4092
lradius 46.7252
lwrist 7.64531
lhand -29.4371 23.2822
lfingers 7.12502
lthumb -2.77384 53.244
rfemur 27.5156 0.980653 17.5404
rtibia 21.7857
rfoot -11.1593 15.1529
rtoes -30.9626
lfemur -34.2098 15.8339 6.78071
ltibia 36.7184
lfoot 12.3351 19.9959
ltoes 9.25752
506
root 9.49514 14.2297 0.92006 -18.462 47.6991 -371.979
lowerback 17.7318 2.95363 5.97272
upperback 11.2905 5.17936 -1.76572
thorax 2.98523 3.22377 -5.96499
lowerneck 3.48452 8.24696 19.3703
upperneck 12.2464 12.2573 -9.3178
head 4.89892 6.58831 -5.45465
rclavicle -7.35503e-014 3.49861e-014
rhumerus -47.7907 3.23296 -83.8313
rradius 37.4635
rwrist -18.4591
rhand -17.9846 4.07616
rfingers 7.12502
rthumb 8.28515 -25.7414
lclavicle -7.35503e-014 3.49861e-014
lhumerus -56.0374 1.16423 79.1878
lradius 46.8117
lwrist 7.47828
lhand -29.4971 23.426
lfingers 7.12502
lthumb -2.83184 53.3869
rfemur 27.2145 1.4969 17.6013
rtibia 21.041
rfoot -10.726 15.3438
rtoes -30.7841
lfemur -33.3722 16.3521 7.44103
ltibia 37.1794
lfoot 11.9981 19.0557
ltoes 8.37252
507
root 9.74775 14.1735 0.934078 -18.091 46.3217 -373.31
lowerback 17.7507 3.35737 5.49934
upperback 11.0265 5.62284 -2.16225
thorax 2.74585 3.41017 -6.19569
lowerneck 3.45643 8.61834 19.3538
upperneck 10.9823 12.657 -9.21715
head 4.56692 6.74294 -5.39496
rclavicle 5.64548e-014 -5.88403e-014
rhumerus -48.4055 3.87349 -84.8301
rradius 37.3279
rwrist -17.6978
rhand -17.1494 4.60232
rfingers 7.12502
rthumb 9.09122 -25.1817
lclavicle 5.64548e-014 -5.88403e-014
lhumerus -55.6856 0.554392 77.8941
lradius 46.9149
lwrist 7.35988
lhand -29.6083 23.5497
lfingers 7.12502
lthumb -2.93915 53.5092
rfemur 26.853 1.91257 17.9588
rtibia 20.1546
rfoot -9.98034 15.43
rtoes -30.4787
lfemur -32.9769 17.098 8.19734
ltibia 37.9378
lfoot 11.0729 17.5882
ltoes 5.66056
508
root 9.99903 14.124 0.947507 -17.7923 45.0528 -374.963
lowerback 17.797 3.75293 4.98034
upperback 10.7053 6.04411 -2.46505
thorax 2.40956 3.57356 -6.30511
lowerneck 3.13498 9.00653 19.1568
upperneck 9.88829 13.0222 -8.95717
head 4.30806 6.87779 -5.2483
rclavicle -1.03368e-014 -7.95139e-015
rhumerus -48.9294 4.56229 -85.685
rradius 37.0278
rwrist -16.8688
rhand -16.2387 5.31269
rfingers 7.12502
rthumb 9.9699 -24.4312
lclavicle -1.03368e-014 -7.95139e-015
lhumerus -55.2336 0.0150091 76.5468
lradius 47.0717
lwrist 7.45471
lhand -29.7711 23.6649
lfingers 7.12502
lthumb -3.09644 53.6222
rfemur 26.3529 2.1693 18.5041
rtibia 19.1883
rfoot -8.77403 15.4703
rtoes -29.8611
lfemur -33.0848 17.9274 8.98807
ltibia 38.9022
lfoot 9.05908 16.2889
ltoes 3.03089
509
root 10.2462 14.0863 0.95944 -17.5274 43.9268 -376.893
lowerback 17.8746 4.11613 4.35576
upperback 10.3289 6.40081 -2.66212
thorax 1.95894 3.68957 -6.24321
lowerneck 2.53458 9.42182 18.7167
upperneck 8.96758 13.3717 -8.50837
head 4.11434 7.00273 -4.99537
rclavicle 3.18055e-014 2.22639e-014
rhumerus -49.2327 5.35643 -86.35
rradius 36.3246
rwrist -16.049
rhand -15.2245 6.18673
rfingers 7.12502
rthumb 10.9482 -23.5078
lclavicle 3.18055e-014 2.22639e-014
lhumerus -54.7421 -0.365521 75.1866
lradius 47.341
lwrist 7.88849
lhand -30.0145 23.7793
lfingers 7.12502
lthumb -3.33146 53.733
rfemur 25.6569 2.22893 19.1926
rtibia 18.1995
rfoot -6.93864 15.4995
rtoes -28.6358
lfemur -33.7258 18.7405 9.84557
ltibia 40.0038
lfoot 6.36203 15.5677
ltoes 0.958977
510
root 10.4871 14.0669 0.969822 -17.1688 42.9597 -378.926
lowerback 17.9919 4.48737 3.51437
upperback 9.89488 6.72774 -2.80015
thorax 1.38336 3.77508 -6.00526
lowerneck 1.68038 9.82628 18.1365
upperneck 8.16829 13.6671 -7.89288
head 3.96665 7.103 -4.66386
rclavicle 4.29375e-014 -6.36111e-014
rhumerus -49.237 6.11711 -86.8046
rradius 35.0693
rwrist -15.2473
rhand -14.1329 7.15221
rfingers 7.12502
rthumb 12.001 -22.4837
lclavicle 4.29375e-014 -6.36111e-014
lhumerus -54.2141 -0.705301 73.8554
lradius 47.7698
lwrist 8.73395
lhand -30.4108 23.8833
lfingers 7.12502
lthumb -3.71414 53.8307
rfemur 24.7067 2.0737 19.8735
rtibia 17.2408
rfoot -4.33993 15.5036
rtoes -26.4968
lfemur -34.8601 19.473 10.7123
ltibia 41.1933
lfoot 3.52621 15.5622
ltoes 0.0570723
